<svg width="249" height="246" viewBox="0 0 249 246" fill="none" xmlns="http://www.w3.org/2000/svg">
<g clip-path="url(#clip0_10_0)">
<path d="M60.7923 6.65371C59.5491 16.9429 55.8888 29.4957 54.0931 29.4957C53.6097 29.4957 50.2946 28.1238 46.7723 26.4775C41.1092 23.8709 32.4762 21.2643 29.2993 21.2643C28.4704 21.2643 28.8849 22.4991 30.8877 26.5461C33.9265 32.6511 36.689 42.1857 36.3437 45.4782L36.1366 47.6732L29.9208 48.1535C11.8261 49.5253 3.33126 50.3485 3.33126 50.6914C3.33126 50.9658 6.37007 54.1897 10.0995 57.9624C17.0749 64.9591 22.1857 72.4359 21.8403 75.0424C21.7022 76.0029 18.18 78.8836 10.9283 83.8912C5.05785 87.9385 0.154326 91.5735 0.0161987 91.917C-0.121929 92.2598 0.637773 92.74 1.7428 93.0142C9.13264 94.5922 12.3096 95.6207 14.934 97.1301C18.5253 99.2564 22.2547 102.412 24.1195 105.018L25.5008 106.939L17.7656 114.553C11.2736 121.001 10.1686 122.305 10.9974 123.059C11.5498 123.539 15.6937 125.117 20.2519 126.488C24.8101 127.86 28.8158 129.301 29.1611 129.644C29.5064 129.987 28.9539 133.485 27.6417 138.287C26.4676 142.745 25.7079 146.655 25.9151 146.998C26.2604 147.616 37.656 147.067 39.5206 146.381C41.2472 145.764 41.9379 147.41 42.4214 152.829C42.6976 155.984 43.112 158.66 43.3882 158.796C43.9407 159.14 51.6759 155.847 51.6759 155.298C51.6759 155.093 50.7781 153.652 49.6731 152.074C46.4961 147.478 44.3551 142.745 42.3523 136.16C41.3854 132.731 39.9351 128.135 39.2444 125.871C38.4847 123.608 37.725 120.521 37.5869 119.012C36.62 111.741 36.4819 109.066 37.1725 109.066C37.5178 109.066 37.8632 110.232 37.8632 111.604C37.9322 114.69 39.4516 122.921 40.4876 125.871C40.9019 126.969 42.2142 131.016 43.3882 134.788C46.2199 143.637 50.2946 151.594 53.8169 155.093C55.4744 156.739 59.0657 159.071 62.5189 160.648L68.3202 163.324L68.1134 165.862L67.9059 168.4L52.5047 173.476L37.1034 178.62L35.1006 185.137C33.9955 188.772 30.8877 199.542 28.1251 209.145C25.3626 218.68 22.7382 226.911 22.3238 227.322C21.9094 227.734 20.6663 231.438 19.6303 235.622C18.5944 239.738 17.6275 243.717 17.4202 244.334C17.0749 245.5 19.8375 245.569 68.8729 245.569C117.977 245.569 120.74 245.5 120.74 244.334C120.74 243.717 117.494 240.15 113.488 236.446C109.482 232.742 106.236 229.312 106.236 228.763C106.236 228.283 108.723 225.745 111.692 223.138C119.289 216.691 119.359 216.279 116.251 208.39C111.002 195.152 99.7443 174.71 95.6002 170.869C94.288 169.635 93.8045 168.468 93.8045 166.617C93.8045 163.804 94.4263 163.118 97.9486 161.952C101.54 160.786 105.062 158.111 107.48 154.75C109.413 152.074 110.242 151.594 115.56 149.948C118.806 148.919 121.43 147.821 121.43 147.547C121.43 147.204 120.187 145.421 118.668 143.637C115.698 140.07 115.145 137.532 117.149 136.915C117.77 136.709 120.187 136.366 122.466 136.092C124.745 135.886 126.817 135.543 127.093 135.337C127.715 135.062 124.193 125.323 123.364 124.979C123.088 124.842 122.812 124.225 122.812 123.539C122.812 122.716 123.779 122.098 126.265 121.481C130.546 120.384 140.768 115.513 140.768 114.622C140.768 114.21 139.456 113.25 137.868 112.427C129.027 107.968 121.845 102.823 123.295 102C123.571 101.863 126.126 101.04 128.889 100.217C131.652 99.3938 136.141 97.679 138.903 96.4438C143.669 94.3175 153.476 88.5554 153.061 88.1439C152.785 87.9385 134.069 79.9814 132.273 79.3638C131.444 79.021 131.237 78.6094 131.583 77.9918C131.859 77.4435 136.417 73.0535 141.666 68.2519C146.846 63.3814 151.128 59.1971 151.128 58.9228C151.128 58.374 146.845 57.6195 134.207 55.836C129.649 55.1501 125.643 54.4641 125.367 54.1897C125.022 53.9153 128.199 47.8791 132.411 40.8138C139.249 29.2213 140.561 26.7519 139.87 26.7519C139.732 26.7519 134.069 28.7412 127.301 31.2105C117.425 34.7775 114.731 35.4634 114.041 34.7775C112.521 33.2684 111.07 21.9503 111.07 11.7982V1.98925L105.477 4.93881C98.9156 8.43714 90.1446 15.228 86.0697 19.9611C84.55 21.8131 82.9618 23.3222 82.6858 23.3222C82.34 23.3222 79.7156 20.1668 76.746 16.2569C71.6356 9.53465 63.0023 0 62.0354 0C61.7592 0 61.2067 3.01816 60.7923 6.65371ZM62.7261 178.552C60.1707 180.541 47.1177 214.77 48.1536 216.553C48.4989 217.17 51.4687 219.983 54.7838 222.864C58.1679 225.745 60.9995 228.42 61.1377 228.832C61.2757 229.243 60.447 230.753 59.2729 232.193C58.1679 233.633 57.201 234.388 57.201 233.907C57.201 233.496 57.8225 232.261 58.6514 231.301L60.1017 229.449L53.4716 223.276C48.8443 218.954 46.8414 216.622 46.8414 215.524C46.8414 213.329 54.7147 192.339 59.5491 181.57C60.7233 178.963 61.6901 177.66 62.5189 177.66C63.6239 177.728 63.6239 177.797 62.7261 178.552Z" fill="#F2F4F7"/>
<path d="M178.34 96.3757C158.933 99.874 148.228 107.488 134.347 127.86C131.308 132.25 131.1 132.799 131.1 137.052C131.1 140.344 130.41 143.568 128.614 149.124C125.576 158.522 125.713 160.717 130.064 168.057C131.791 170.938 133.172 173.682 133.172 174.025C133.172 174.436 132.274 175.74 131.1 176.974C127.44 180.884 127.509 186.92 131.308 190.967C133.518 193.231 138.698 195.357 140.079 194.466C140.424 194.26 139.941 192.682 139.043 190.899C138.076 189.184 137.316 187.264 137.385 186.646C137.385 185.96 137.731 186.166 138.145 187.264C139.319 189.801 144.775 198.17 147.469 201.462C152.787 208.047 164.251 214.701 174.956 217.514C178.202 218.337 183.935 219.091 188.769 219.297C193.327 219.503 196.435 219.914 195.675 220.189C191.531 221.629 172.469 218.954 163.698 215.662L159.141 213.947L157.966 215.524C153.615 221.217 148.642 234.182 147.399 242.962L147.054 245.569H189.874C230.345 245.569 232.693 245.5 232.348 244.334C232.141 243.717 231.036 239.601 229.931 235.211C227.514 225.745 225.579 221.012 222.472 216.965C221.229 215.319 220.193 213.604 220.193 213.124C220.262 212.712 221.988 211.065 224.13 209.557C227.997 206.813 233.315 201.257 236.215 196.867C237.182 195.426 238.702 194.26 240.083 193.849C241.257 193.505 243.467 192.065 244.986 190.693C249.752 186.166 250.236 179.992 246.023 176.356C244.572 175.122 244.365 174.505 244.779 172.31C245.056 170.938 245.47 169.635 245.747 169.429C246.023 169.223 246.644 167.234 247.128 164.97C247.818 161.678 247.818 159.14 247.128 152.074C246.644 147.273 245.953 143.363 245.608 143.363C245.263 143.363 245.056 141.442 245.125 139.041C245.263 135.269 244.918 134.103 242.431 129.301C239.116 122.784 234.213 115.651 229.24 110.3C226.201 107.007 224.198 105.704 216.394 101.863C210.869 99.1877 205.206 96.924 202.444 96.3757C196.711 95.1405 184.97 95.1405 178.34 96.3757Z" fill="#F2F4F7"/>
<path d="M97.2589 171.212C97.2589 171.418 98.5711 173.338 100.228 175.465C101.886 177.592 104.165 180.953 105.408 182.805C108.654 187.949 116.182 204 118.392 210.38C120.809 217.17 120.602 217.65 113.35 223.755C110.588 226.088 108.309 228.558 108.309 229.106C108.309 229.723 111.416 233.016 115.215 236.583C119.359 240.356 122.121 243.443 122.121 244.266C122.121 245.5 122.674 245.569 131.79 245.569C139.042 245.569 141.46 245.363 141.46 244.677C141.46 241.796 124.539 181.364 122.95 178.483C122.674 177.935 118.254 176.494 113.143 175.191C108.032 173.956 102.714 172.447 101.264 171.83C98.4327 170.732 97.2589 170.526 97.2589 171.212Z" fill="#F2F4F7"/>
</g>
<defs>
<clipPath id="clip0_10_0">
<rect width="249" height="246" fill="white"/>
</clipPath>
</defs>
</svg>
